<svg width="14" height="14" viewBox="0 0 14 14" fill="none" xmlns="http://www.w3.org/2000/svg">
<path fill-rule="evenodd" clip-rule="evenodd" d="M7.00004 0.332031C3.32004 0.332031 0.333374 3.3187 0.333374 6.9987C0.333374 10.6787 3.32004 13.6654 7.00004 13.6654C10.68 13.6654 13.6667 10.6787 13.6667 6.9987C13.6667 3.3187 10.68 0.332031 7.00004 0.332031ZM7.00004 12.332C4.06004 12.332 1.66671 9.9387 1.66671 6.9987C1.66671 4.0587 4.06004 1.66536 7.00004 1.66536C9.94004 1.66536 12.3334 4.0587 12.3334 6.9987C12.3334 9.9387 9.94004 12.332 7.00004 12.332ZM5.66671 8.44518L9.58671 4.52518C9.84671 4.26518 10.2734 4.26518 10.5334 4.52518C10.7934 4.78518 10.7934 5.20518 10.5334 5.46518L6.14005 9.85852C5.88005 10.1185 5.46005 10.1185 5.20005 9.85852L3.47338 8.13185C3.21338 7.87185 3.21338 7.45185 3.47338 7.19185C3.59793 7.06701 3.76704 6.99686 3.94338 6.99686C4.11973 6.99686 4.28883 7.06701 4.41338 7.19185L5.66671 8.44518Z" fill="#999999"/>
</svg>
